<?xml version="1.0" standalone="no"?>
<!DOCTYPE svg PUBLIC "-//W3C//DTD SVG 20010904//EN"
 "http://www.w3.org/TR/2001/REC-SVG-20010904/DTD/svg10.dtd">
<svg version="1.0" xmlns="http://www.w3.org/2000/svg"
 width="512.000000pt" height="512.000000pt" viewBox="0 0 512.000000 512.000000"
 preserveAspectRatio="xMidYMid meet">
<metadata>
Created by potrace 1.14, written by Peter Selinger 2001-2017
</metadata>
<g transform="translate(0.000000,512.000000) scale(0.100000,-0.100000)"
fill="#000000" stroke="none">
<path d="M2448 4953 c-9 -2 -20 -14 -25 -26 -9 -27 -4 -128 7 -142 4 -5 10
-27 14 -47 4 -21 11 -38 16 -38 6 0 19 -9 31 -21 17 -17 28 -19 62 -14 69 11
78 15 84 45 3 16 11 31 19 34 11 4 14 29 14 105 0 91 -2 100 -20 106 -11 3
-29 3 -40 0 -16 -5 -20 -15 -20 -55 0 -36 5 -52 17 -59 16 -9 16 -11 2 -28 -9
-10 -19 -35 -23 -55 -6 -32 -11 -38 -31 -38 -37 0 -55 35 -55 108 0 35 5 73
11 84 6 11 7 24 2 28 -12 11 -45 18 -65 13z"/>
<path d="M2732 4933 c-5 -10 -10 -60 -11 -112 -1 -73 -5 -99 -18 -113 -13 -14
-14 -21 -4 -31 18 -18 92 -13 103 7 8 15 11 15 26 -4 18 -23 52 -19 52 6 0 7
6 17 14 21 8 4 16 22 19 38 3 26 4 25 6 -9 0 -24 -5 -46 -15 -58 -14 -14 -14
-20 -4 -33 16 -19 70 -20 95 -1 19 14 19 15 2 33 -21 24 -22 47 -2 76 15 24
23 136 11 156 -4 6 -22 11 -39 11 -27 0 -36 -7 -54 -40 -13 -21 -23 -44 -23
-50 0 -11 -24 -40 -33 -40 -2 0 -7 26 -11 58 -6 49 -11 62 -36 80 -35 27 -66
28 -78 5z m55 -200 c-3 -10 -5 -4 -5 12 0 17 2 24 5 18 2 -7 2 -21 0 -30z"/>
<path d="M2147 4919 c-26 -4 -62 -16 -80 -27 -26 -15 -32 -24 -30 -51 0 -17 6
-38 13 -46 11 -13 17 -11 48 16 22 20 38 27 40 20 2 -6 -1 -18 -7 -25 -19 -23
-61 -106 -61 -122 0 -7 -3 -14 -6 -14 -12 0 -44 21 -44 29 0 17 -75 121 -87
121 -16 0 -16 5 -1 30 11 17 9 23 -12 44 l-25 25 -28 -25 c-28 -24 -29 -27
-34 -152 -9 -197 4 -232 64 -176 26 24 27 27 10 38 -21 16 -21 23 -3 42 25 24
53 17 65 -16 9 -27 14 -30 54 -30 27 0 49 6 57 15 9 11 33 15 92 15 62 0 80 3
85 16 8 21 44 33 64 21 39 -24 102 22 66 48 -14 10 -17 30 -17 102 0 56 -4 93
-12 101 -16 16 -50 15 -74 -2 -10 -8 -23 -11 -29 -7 -18 14 -59 18 -108 10z
m133 -63 c0 -13 7 -29 15 -36 10 -8 15 -30 14 -64 0 -44 -2 -48 -11 -28 -19
38 -88 19 -88 -24 0 -8 -10 -14 -25 -14 -30 0 -33 21 -7 49 31 33 52 65 52 77
0 19 34 73 42 68 5 -3 8 -16 8 -28z"/>
<path d="M3309 4864 c-9 -11 -22 -14 -45 -10 -50 10 -64 0 -64 -48 0 -23 -6
-51 -14 -62 -8 -11 -17 -37 -21 -57 -5 -26 -12 -37 -25 -37 -10 0 -23 -6 -29
-13 -8 -10 -4 -20 19 -42 22 -21 42 -29 82 -33 30 -3 57 -11 61 -18 11 -19 56
-18 77 1 16 14 18 13 23 -15 5 -22 12 -30 27 -30 11 0 28 -9 37 -20 11 -12 30
-20 50 -20 17 0 35 -4 38 -10 3 -5 16 -10 28 -10 31 0 70 74 61 116 -5 25 -1
33 20 47 15 10 26 27 26 39 0 24 -55 78 -81 78 -9 0 -22 7 -29 15 -16 20 -74
19 -94 -1 -10 -9 -16 -33 -16 -59 0 -33 -6 -51 -25 -71 -22 -24 -25 -25 -25
-7 0 10 -6 28 -14 38 -14 19 -15 19 -35 1 -20 -19 -20 -18 -14 31 5 45 3 52
-20 70 -15 11 -23 23 -20 27 13 12 44 6 50 -11 11 -27 43 -54 61 -51 23 4 30
76 8 84 -9 3 -16 12 -16 19 0 15 -48 75 -60 75 -4 0 -13 -7 -21 -16z m261
-238 c0 -19 -1 -19 -20 2 -11 12 -20 26 -20 32 0 6 7 6 20 -2 11 -7 20 -22 20
-32z m-323 -2 c-3 -3 -12 -4 -19 -1 -8 3 -5 6 6 6 11 1 17 -2 13 -5z m269
-102 c-33 -4 -56 19 -56 54 l0 28 41 -39 c40 -40 40 -40 15 -43z"/>
<path d="M1670 4775 c-7 -8 -10 -31 -8 -50 3 -31 1 -35 -18 -35 -12 0 -24 7
-28 15 -7 18 -86 21 -104 3 -22 -22 -14 -63 18 -86 19 -14 30 -32 30 -46 0
-13 6 -29 14 -35 8 -6 17 -32 20 -56 8 -49 23 -66 40 -43 6 8 19 17 29 21 21
8 23 43 2 51 -9 3 -15 18 -15 35 0 30 1 30 28 18 15 -6 33 -17 40 -24 18 -17
77 -16 91 1 9 11 8 17 -3 29 -8 8 -18 30 -21 50 -4 20 -13 41 -21 48 -8 6 -14
30 -14 53 0 23 -5 47 -12 54 -17 17 -53 15 -68 -3z"/>
<path d="M1383 4624 c-27 -30 -29 -49 -8 -58 16 -6 22 -86 7 -86 -13 0 -82 50
-82 60 0 6 -16 10 -35 10 -25 0 -44 -8 -61 -25 -28 -28 -28 -43 1 -59 11 -6
28 -20 37 -31 10 -11 23 -27 30 -35 22 -24 42 -62 53 -95 7 -25 85 -17 85 9 0
6 -15 25 -34 43 -19 17 -32 33 -30 36 9 9 44 -5 44 -17 0 -6 15 -17 33 -24 28
-11 34 -10 45 5 6 9 12 33 13 52 1 32 2 33 8 11 8 -28 39 -37 70 -20 30 16 26
45 -14 89 -19 21 -35 44 -35 51 0 14 -28 66 -49 93 -20 24 -52 21 -78 -9z"/>
<path d="M3891 4536 c-7 -8 -23 -17 -37 -20 -14 -4 -38 -20 -53 -35 -16 -16
-37 -32 -49 -35 -11 -4 -26 -13 -32 -21 -7 -8 -20 -15 -30 -15 -28 0 -43 -25
-25 -40 8 -7 15 -19 15 -27 0 -10 9 -13 32 -11 25 2 36 10 46 31 13 27 15 28
33 11 23 -20 25 -60 4 -68 -23 -9 -18 -29 16 -56 17 -14 40 -33 51 -42 12 -10
26 -18 32 -18 6 0 26 -16 43 -35 18 -19 35 -35 39 -35 4 0 13 -8 19 -17 12
-16 15 -16 32 -2 10 9 30 19 46 23 53 13 17 56 -47 56 -15 0 -26 7 -29 20 -7
26 16 55 37 47 13 -5 15 -2 10 18 -4 14 -2 25 4 25 14 0 92 52 92 61 0 4 -21
26 -47 48 -51 43 -66 42 -76 -7 -3 -16 -31 -55 -62 -88 -54 -57 -57 -58 -71
-39 -12 17 -12 20 1 28 9 5 15 22 15 45 0 52 44 154 69 164 24 8 26 19 9 36
-16 16 -73 15 -87 -2z"/>
<path d="M1095 4434 c-26 -27 -3 -73 38 -74 9 0 17 -7 17 -16 0 -9 16 -35 35
-58 19 -24 35 -53 35 -65 0 -27 29 -40 44 -20 6 9 19 18 29 22 9 3 17 12 17
19 -1 17 -46 68 -60 68 -5 0 -10 8 -10 18 0 11 -8 28 -17 40 -10 11 -29 34
-43 51 -27 34 -60 40 -85 15z"/>
<path d="M1840 4357 c-57 -36 -110 -95 -110 -121 0 -13 -6 -29 -14 -35 -7 -6
-16 -29 -19 -52 -3 -22 -17 -55 -31 -74 -14 -18 -26 -40 -26 -48 0 -20 -38
-52 -97 -82 -29 -14 -53 -31 -53 -36 0 -6 -7 -17 -15 -25 -8 -9 -15 -25 -15
-37 0 -12 -7 -35 -15 -51 -18 -34 -19 -73 -3 -78 27 -9 57 5 66 31 8 23 41 60
103 117 9 8 24 14 33 14 17 0 76 51 76 65 0 4 7 13 15 21 8 9 15 30 15 48 0
19 6 39 14 45 8 6 17 32 21 58 8 54 38 99 71 107 13 4 24 11 24 16 0 6 27 10
61 10 56 0 63 -3 95 -35 19 -20 34 -44 34 -54 0 -10 6 -24 14 -30 8 -7 17 -24
21 -38 11 -46 130 -152 196 -175 37 -13 49 -21 88 -59 41 -42 49 -54 61 -98 6
-22 15 -41 20 -41 6 0 10 -15 10 -34 0 -19 5 -38 10 -41 6 -3 15 -27 21 -51 7
-25 18 -48 25 -51 8 -3 14 -13 14 -23 0 -22 98 -120 119 -120 5 0 11 -7 15
-15 3 -8 12 -15 21 -15 10 0 15 -10 15 -29 0 -16 7 -34 15 -41 10 -9 15 -32
15 -74 0 -39 8 -77 20 -105 11 -24 20 -48 20 -53 0 -16 74 -107 88 -108 6 0
12 -6 12 -12 0 -16 44 -58 59 -58 6 0 11 -5 11 -10 0 -6 12 -15 26 -20 35 -14
73 -61 109 -137 8 -18 20 -33 25 -33 6 0 10 -9 10 -20 0 -12 7 -20 18 -20 10
0 13 -3 7 -8 -6 -4 -16 -19 -22 -34 -8 -17 -23 -30 -40 -34 -15 -3 -39 -13
-52 -21 -15 -10 -37 -13 -63 -10 -50 7 -58 -8 -58 -110 0 -44 -5 -84 -11 -90
-5 -5 -11 -34 -11 -62 -2 -57 8 -71 53 -71 35 0 57 27 65 80 3 25 14 62 23 82
15 36 18 37 67 38 36 0 58 6 74 20 13 11 28 20 34 20 7 0 33 19 59 43 l47 42
0 101 0 102 -66 71 c-36 39 -72 71 -79 71 -7 0 -15 7 -19 15 -3 8 -10 15 -15
15 -5 0 -49 40 -99 88 l-89 89 -5 86 c-3 59 -9 92 -20 104 -9 10 -19 28 -22
40 -4 13 -59 76 -122 140 -63 65 -114 126 -114 136 0 9 -7 20 -15 23 -10 4
-15 20 -15 46 0 21 -7 52 -15 67 -8 16 -17 47 -21 70 -4 22 -13 46 -20 52 -8
6 -14 20 -14 31 0 10 -7 21 -15 24 -8 4 -15 12 -15 19 0 22 -91 109 -133 128
-22 9 -53 17 -71 17 -30 0 -97 29 -121 54 -7 6 -16 23 -20 36 -4 14 -14 33
-22 42 -10 11 -14 30 -11 53 2 19 0 35 -6 35 -5 0 -19 9 -31 20 -11 10 -42 31
-68 45 -65 34 -165 35 -217 2z"/>
<path d="M988 4330 c-7 -11 -20 -20 -30 -20 -32 0 -48 -40 -48 -121 0 -76 1
-77 35 -108 30 -26 44 -31 86 -31 47 0 53 3 109 59 60 59 73 87 45 97 -8 4
-15 12 -15 20 0 8 -5 14 -10 14 -6 0 -32 22 -59 49 -57 57 -95 71 -113 41z
m92 -76 c0 -4 -7 -12 -17 -19 -22 -17 -10 -45 21 -45 34 0 38 -29 8 -57 -31
-30 -43 -29 -86 9 -31 27 -36 38 -36 75 l0 43 55 0 c30 0 55 -3 55 -6z"/>
<path d="M4181 4250 c-35 -36 -31 -60 10 -60 16 0 29 -2 29 -5 0 -7 -39 -45
-45 -45 -3 0 -20 -16 -38 -35 -17 -19 -39 -35 -48 -35 -45 0 -40 -63 6 -80 33
-13 71 2 78 32 4 13 16 28 29 33 13 6 29 22 36 38 14 29 32 28 32 -3 0 -22 34
-44 55 -36 19 7 48 73 41 91 -3 9 -14 18 -23 22 -10 4 -42 31 -71 60 -29 29
-55 53 -57 53 -2 0 -17 -14 -34 -30z"/>
<path d="M4396 4015 c-3 -10 -19 -15 -44 -15 -23 0 -45 -6 -52 -15 -8 -9 -30
-15 -57 -15 -24 0 -53 -5 -63 -10 -19 -10 -19 -11 1 -45 22 -37 46 -45 55 -20
9 21 48 19 69 -5 18 -20 18 -21 -13 -49 -18 -15 -32 -32 -32 -37 0 -5 16 -24
35 -41 19 -18 35 -41 35 -51 0 -11 7 -25 15 -32 8 -7 15 -20 15 -29 0 -10 15
-34 34 -55 21 -22 36 -50 38 -68 4 -41 29 -56 63 -38 23 12 28 12 46 -7 l21
-20 -30 -11 c-19 -6 -32 -19 -36 -35 -7 -28 8 -77 23 -77 5 0 11 -15 13 -32 3
-30 6 -33 41 -36 26 -2 39 1 43 12 4 11 19 16 45 16 l38 0 -50 -52 c-39 -40
-49 -58 -49 -85 0 -32 1 -33 44 -33 25 0 51 6 58 14 8 7 43 17 79 21 35 4 67
12 71 19 12 17 9 50 -5 70 -13 17 -15 17 -45 2 -18 -9 -32 -21 -32 -26 0 -6
-12 -10 -26 -10 -25 0 -25 0 10 34 20 18 36 38 36 44 0 5 7 12 15 16 24 9 17
49 -14 78 l-29 28 -33 -29 c-29 -26 -80 -41 -135 -41 -21 0 -16 38 6 50 11 6
20 17 20 25 0 8 7 15 15 15 8 0 15 7 15 15 0 8 4 15 10 15 13 0 60 48 60 62 0
6 8 4 18 -5 26 -24 41 -21 48 8 12 49 -7 56 -143 53 -110 -3 -124 -1 -129 14
-3 10 -17 21 -31 24 -14 4 -34 15 -45 26 -18 18 -18 19 -1 36 10 9 40 28 66
42 74 38 89 56 81 93 -9 43 -24 50 -50 26 -14 -13 -24 -17 -29 -10 -12 21 -25
11 -19 -14 6 -23 3 -25 -24 -25 -17 0 -32 6 -35 13 -2 6 -8 9 -12 5 -4 -4 -2
-15 5 -24 17 -19 -1 -34 -42 -34 -32 0 -34 5 -13 26 8 9 15 24 15 35 0 11 7
22 15 25 8 4 15 12 15 19 0 6 9 22 20 35 11 13 20 29 20 35 0 7 7 18 15 25 13
11 12 16 -8 41 -24 31 -52 37 -61 14z"/>
<path d="M668 3971 l-27 -28 35 -38 c19 -21 34 -46 34 -57 0 -10 7 -21 15 -24
8 -4 15 -12 15 -20 0 -7 8 -17 18 -23 13 -8 15 -14 6 -28 -8 -13 -28 -19 -73
-23 l-61 -5 -6 35 c-8 52 -18 65 -49 65 -39 0 -53 -47 -24 -76 10 -10 19 -29
19 -41 l0 -23 -19 24 c-35 46 -91 6 -79 -56 2 -10 21 -28 43 -40 22 -12 54
-30 70 -39 17 -9 42 -27 57 -41 14 -14 34 -23 44 -21 17 3 25 14 55 83 8 17
22 39 32 50 94 102 108 138 62 155 -35 13 -40 35 -15 60 l22 22 32 -31 c25
-24 35 -28 44 -19 7 7 12 19 12 27 0 8 8 23 17 34 17 18 17 19 -2 33 -10 8
-35 14 -54 14 -20 0 -45 7 -55 15 -11 8 -39 15 -62 15 -25 0 -47 6 -54 15 -17
20 -20 19 -52 -14z m39 -337 c-3 -3 -12 -4 -19 -1 -8 3 -5 6 6 6 11 1 17 -2
13 -5z"/>
<path d="M1948 3833 c-14 -2 -32 -11 -38 -19 -7 -8 -27 -14 -45 -14 -18 0 -38
-7 -45 -15 -7 -8 -19 -15 -26 -15 -8 0 -19 -9 -26 -20 -7 -11 -23 -20 -36 -20
-12 0 -25 -7 -28 -15 -3 -8 -14 -17 -25 -20 -10 -4 -19 -13 -19 -21 0 -8 -6
-14 -12 -14 -7 0 -29 -15 -49 -33 -20 -17 -52 -46 -71 -63 -19 -18 -46 -35
-59 -39 -13 -4 -32 -14 -41 -22 -14 -13 -25 -13 -88 3 -67 16 -74 16 -100 1
-15 -10 -38 -17 -49 -17 -12 0 -24 -7 -27 -15 -4 -8 -12 -15 -19 -15 -15 0
-65 -70 -65 -92 0 -8 -6 -21 -14 -27 -14 -12 -33 -161 -27 -206 5 -34 90 -130
126 -142 11 -3 25 -13 31 -21 6 -9 18 -13 28 -9 22 9 23 109 0 131 -11 11 -14
32 -12 73 3 66 16 82 66 83 18 0 40 4 50 9 25 13 101 32 149 38 23 3 49 13 59
24 9 10 23 19 31 19 7 0 13 6 13 14 0 8 10 16 23 18 13 2 28 16 38 35 37 74
147 190 189 200 14 3 33 13 44 22 15 13 42 16 159 15 96 -1 142 -5 145 -13 2
-6 17 -18 33 -26 16 -9 29 -22 29 -29 0 -8 7 -36 16 -63 15 -45 15 -54 0 -97
-9 -26 -16 -66 -16 -89 0 -23 -7 -51 -15 -61 -8 -11 -15 -30 -15 -43 0 -68
-157 -244 -265 -298 -33 -16 -61 -33 -63 -37 -2 -4 -13 -8 -25 -8 -12 0 -35
-7 -51 -15 -15 -8 -32 -15 -37 -15 -20 0 -49 36 -49 60 0 20 -8 30 -34 41 -25
11 -38 13 -45 6 -17 -17 -14 -172 3 -186 8 -7 18 -31 21 -54 4 -23 11 -46 15
-52 4 -5 11 -29 15 -53 5 -34 18 -54 68 -102 33 -33 67 -60 75 -60 7 0 25 -9
39 -20 14 -11 40 -20 58 -20 18 0 38 -7 45 -15 7 -8 28 -15 48 -15 19 0 43 -7
52 -15 10 -9 35 -19 56 -22 21 -4 45 -12 52 -20 7 -7 21 -13 30 -13 21 0 117
-97 126 -127 4 -11 13 -27 21 -33 10 -8 15 -31 15 -65 0 -52 -1 -53 -40 -74
-22 -12 -56 -21 -74 -21 -18 0 -39 -6 -45 -14 -6 -7 -36 -16 -66 -18 -31 -3
-63 -12 -73 -21 -10 -9 -32 -17 -49 -17 -17 0 -36 -7 -43 -15 -7 -8 -27 -15
-44 -15 -18 0 -41 -7 -52 -15 -10 -8 -28 -15 -39 -15 -12 0 -38 -9 -60 -20
-22 -11 -49 -20 -62 -20 -12 0 -26 -6 -30 -13 -4 -8 -25 -17 -47 -20 -21 -3
-46 -13 -56 -22 -9 -8 -28 -15 -42 -15 -14 0 -31 -7 -38 -15 -7 -8 -26 -15
-42 -15 -16 0 -41 -9 -55 -20 -14 -11 -38 -20 -53 -20 -15 0 -33 -7 -40 -15
-7 -8 -23 -15 -35 -15 -12 0 -29 -7 -36 -16 -11 -14 -10 -18 6 -30 27 -20 84
-17 128 6 20 11 48 20 61 20 13 0 29 7 36 15 7 8 25 15 40 15 15 0 33 6 39 14
6 8 32 17 57 21 25 3 48 13 51 21 3 9 19 14 43 14 21 0 43 7 50 15 7 8 23 15
36 15 13 0 32 9 41 20 13 15 30 20 64 20 27 0 51 6 58 14 6 7 32 16 57 19 26
2 50 10 54 17 4 7 29 15 56 18 27 2 58 11 69 18 11 8 43 14 71 14 34 0 56 5
64 15 7 8 25 15 41 15 26 0 29 -3 29 -35 0 -23 7 -41 20 -52 11 -10 20 -25 20
-33 0 -21 61 -80 83 -80 10 0 20 -6 23 -14 3 -8 21 -17 39 -20 19 -4 47 -13
62 -21 15 -8 44 -15 64 -15 24 0 39 -5 43 -15 3 -10 19 -15 42 -15 21 0 45 -6
53 -14 43 -37 91 -21 91 30 0 28 -69 104 -93 104 -8 0 -20 7 -27 15 -7 8 -28
17 -49 20 -20 4 -48 13 -63 21 -14 8 -45 14 -67 14 -35 0 -48 6 -81 39 -68 67
-43 111 62 111 l58 0 0 -36 c0 -23 9 -47 26 -70 26 -34 26 -34 110 -34 l84 0
48 42 c25 24 53 49 60 56 7 6 19 12 26 12 8 0 19 7 26 15 7 8 25 15 39 15 15
0 36 7 47 15 10 8 33 15 49 15 17 0 45 9 63 20 21 13 50 20 85 20 29 0 61 6
72 14 11 7 53 15 92 18 40 3 78 10 85 15 7 6 77 14 156 17 86 5 157 13 177 22
19 8 47 14 62 14 l28 0 -32 -16 c-18 -9 -44 -27 -58 -40 -14 -13 -29 -24 -33
-24 -4 0 -15 -8 -23 -17 -9 -10 -26 -25 -38 -33 -61 -40 -101 -73 -101 -81 0
-5 -6 -9 -13 -9 -14 0 -50 -25 -75 -52 -9 -10 -22 -18 -29 -18 -7 0 -13 -6
-13 -14 0 -10 -26 -14 -105 -18 -58 -3 -111 -10 -118 -16 -6 -5 -53 -12 -104
-14 -85 -3 -94 -5 -122 -32 -24 -23 -28 -33 -20 -43 13 -15 109 -17 179 -4 44
9 110 4 110 -8 0 -3 -20 -20 -43 -38 -24 -18 -61 -50 -84 -71 -22 -21 -48 -42
-57 -45 -9 -4 -16 -13 -16 -22 0 -8 -8 -15 -17 -15 -17 0 -63 -39 -206 -175
-37 -36 -70 -65 -72 -65 -2 0 -26 -21 -53 -48 -26 -26 -62 -59 -78 -73 -29
-25 -91 -92 -171 -185 -78 -90 -83 -97 -83 -114 0 -10 -7 -21 -16 -24 -11 -4
-14 -16 -12 -43 3 -41 18 -51 41 -28 9 8 23 15 31 15 9 0 25 9 36 20 11 11 28
20 39 20 10 0 24 6 30 14 7 8 23 17 36 20 14 4 31 19 39 34 8 16 35 51 60 78
100 108 116 124 121 124 3 0 43 38 90 85 46 47 87 85 91 85 9 0 100 77 152
128 23 23 47 42 52 42 5 0 13 6 17 13 4 6 27 25 50 40 22 16 54 41 70 57 15
16 33 30 38 30 13 0 44 23 91 68 19 17 38 32 43 32 4 0 20 9 33 20 22 17 35
19 110 13 83 -6 85 -6 67 -24 -11 -11 -26 -19 -34 -19 -18 0 -131 -75 -168
-112 -15 -16 -32 -28 -38 -28 -22 0 -133 -96 -296 -257 -68 -67 -123 -126
-123 -132 0 -5 -6 -14 -13 -18 -20 -12 -127 -149 -127 -162 0 -6 -3 -11 -8
-11 -9 0 -92 -105 -92 -117 0 -5 -9 -16 -19 -25 -15 -13 -18 -23 -12 -45 6
-24 13 -28 48 -31 27 -2 44 2 53 13 7 8 20 15 29 15 15 0 91 68 91 81 0 21
477 499 497 499 3 0 25 16 49 35 23 19 46 35 50 35 4 0 26 16 50 35 23 19 47
35 53 35 6 0 11 4 11 9 0 5 28 24 63 41 86 44 107 56 120 69 6 6 20 11 32 11
11 0 34 9 50 20 17 11 42 20 56 20 15 0 32 7 39 15 7 9 29 15 51 15 49 0 109
51 89 75 -7 8 -26 15 -43 15 -17 0 -39 8 -49 17 -11 10 -42 18 -76 21 -31 3
-66 11 -77 18 -14 10 -53 14 -133 14 l-113 0 27 25 c15 14 32 25 38 25 6 0 26
14 45 30 18 17 45 37 59 45 26 13 69 47 103 80 9 8 21 15 28 15 6 0 14 7 17
15 4 8 12 15 19 15 6 0 20 9 30 20 10 11 22 20 27 20 10 0 20 7 73 55 39 34
39 36 21 50 -28 21 -647 22 -722 1 -27 -8 -103 -17 -169 -21 -70 -4 -131 -13
-147 -21 -15 -8 -53 -14 -86 -14 -36 0 -66 -6 -78 -15 -10 -8 -31 -15 -45 -15
-14 0 -34 -9 -44 -20 -10 -11 -29 -20 -42 -20 -12 0 -23 -4 -23 -10 0 -5 -15
-16 -34 -24 -19 -8 -44 -28 -57 -45 -24 -33 -44 -32 -35 3 4 15 -3 30 -23 49
-26 24 -37 27 -99 27 -49 0 -75 -5 -86 -15 -10 -11 -36 -15 -90 -15 l-76 0 0
84 c0 62 -4 87 -15 96 -8 7 -15 25 -15 40 0 32 -51 107 -83 120 -12 6 -29 14
-37 20 -40 26 -113 50 -152 50 -24 0 -52 7 -62 15 -11 8 -32 15 -48 15 -15 0
-50 9 -78 20 -28 11 -59 20 -69 20 -11 0 -21 7 -25 15 -3 8 -17 15 -30 15 -14
0 -29 6 -33 13 -4 7 -23 25 -41 40 -34 28 -33 30 18 40 75 16 116 30 123 43 4
8 15 14 23 14 13 0 71 35 84 51 3 4 15 9 26 13 12 4 38 22 57 41 20 19 39 35
42 35 25 0 155 158 155 189 0 6 4 11 10 11 5 0 12 11 16 25 3 13 12 29 20 36
8 6 14 25 14 42 0 17 8 39 18 50 15 17 17 42 17 197 0 155 -2 180 -17 197 -10
11 -18 25 -18 31 0 32 -76 118 -112 127 -15 4 -29 13 -32 21 -3 8 -19 14 -35
14 -16 0 -31 5 -33 11 -7 22 -153 35 -240 22z"/>
<path d="M413 3563 c-14 -5 -17 -41 -7 -67 4 -9 18 -16 34 -16 16 0 32 -4 35
-10 4 -6 -13 -10 -43 -10 -42 0 -51 -4 -70 -30 -29 -38 -28 -48 6 -63 15 -6
31 -17 35 -24 4 -7 24 -13 43 -13 26 0 37 -5 41 -18 3 -14 11 -18 29 -14 19 3
24 0 24 -16 0 -18 -8 -21 -107 -27 -60 -3 -114 -8 -120 -10 -7 -3 -13 -19 -13
-38 0 -34 17 -50 132 -127 l37 -24 -30 -13 c-30 -12 -37 -27 -18 -38 19 -13
30 -55 18 -76 -10 -19 -12 -19 -27 -5 -10 8 -42 18 -72 22 -30 3 -62 13 -71
21 -24 21 -41 -6 -37 -59 l3 -43 55 -2 c85 -4 140 -13 140 -24 0 -5 -10 -9
-23 -9 -13 0 -28 -5 -35 -12 -9 -9 -20 -7 -47 8 -35 18 -37 18 -49 2 -7 -10
-17 -18 -23 -18 -5 0 -19 -13 -31 -29 -24 -33 -40 -155 -24 -180 7 -10 39 -15
108 -18 54 -2 104 -8 110 -14 22 -18 58 -6 65 21 13 45 10 168 -3 177 -7 4
-19 18 -26 31 -10 18 -10 22 2 22 7 0 25 15 40 34 23 31 26 44 26 117 0 61 4
87 16 100 22 24 12 35 -36 43 -22 3 -40 7 -40 9 0 2 8 19 19 40 16 31 21 35
31 22 15 -18 51 -20 68 -3 7 7 12 29 12 49 0 20 7 42 15 49 19 16 20 74 1 89
-10 8 -16 9 -21 1 -9 -15 -34 -12 -51 5 -9 8 -25 16 -37 16 -12 1 14 5 57 9
82 8 106 22 106 60 0 23 -85 76 -116 72 -13 -2 -24 1 -24 7 0 15 -84 34 -107
24z m-115 -850 c-2 -31 -7 -39 -27 -41 -13 -2 -21 0 -19 5 3 4 11 23 18 41 19
43 32 41 28 -5z m118 23 c8 -8 14 -26 14 -40 0 -24 -4 -26 -40 -26 -40 0 -54
15 -25 26 8 4 15 14 15 23 0 32 14 38 36 17z"/>
<path d="M4680 3093 c-49 -38 -50 -40 -50 -113 0 -59 3 -68 30 -95 64 -66 90
-73 146 -43 75 40 84 54 84 140 l0 76 -42 31 c-56 41 -117 43 -168 4z m158
-102 c7 -66 -80 -109 -130 -64 -18 16 -26 82 -11 97 4 4 37 6 73 4 l65 -3 3
-34z"/>
<path d="M1230 2928 c-82 -94 -120 -121 -148 -104 -6 3 -13 -5 -16 -18 -4 -17
-15 -26 -35 -31 -16 -3 -35 -13 -42 -21 -6 -8 -26 -14 -43 -14 -37 0 -57 -13
-137 -93 -39 -39 -62 -71 -69 -97 -6 -22 -15 -42 -20 -45 -6 -3 -10 -31 -10
-61 0 -41 4 -56 16 -61 17 -6 58 35 70 70 7 23 78 97 91 97 6 0 13 7 17 15 3
9 18 15 34 15 16 0 41 9 55 20 15 12 40 20 65 20 23 0 45 6 52 15 7 8 18 15
24 15 15 1 106 85 106 99 0 6 4 11 9 11 5 0 15 16 21 36 7 20 18 48 26 62 8
15 14 40 14 55 0 30 -16 67 -28 67 -4 0 -27 -24 -52 -52z"/>
<path d="M4676 2802 c-3 -5 -6 -48 -7 -97 -3 -81 -1 -89 20 -106 52 -42 125
-14 136 53 4 23 16 55 26 72 l19 31 0 -35 c0 -23 -7 -42 -20 -53 -31 -27 -15
-49 34 -45 l41 3 0 75 c0 104 -4 110 -66 110 -42 0 -52 -3 -56 -20 -5 -20 -5
-20 -30 0 -26 20 -87 27 -97 12z m92 -84 c-2 -36 -7 -44 -25 -46 -21 -3 -23 1
-23 36 0 39 8 49 38 51 9 1 12 -11 10 -41z"/>
<path d="M4683 2463 c-7 -2 -15 -20 -19 -39 -3 -19 -10 -37 -16 -40 -14 -9 11
-34 35 -34 11 0 25 8 32 17 11 15 15 15 29 4 21 -18 157 -33 174 -19 15 13 16
64 1 74 -6 3 -52 8 -102 11 -55 3 -98 10 -107 17 -8 8 -20 11 -27 9z"/>
<path d="M437 2416 c-5 -13 -25 -16 -101 -16 -64 0 -96 4 -98 12 -9 25 -38 -1
-38 -34 0 -42 9 -55 43 -63 20 -5 28 -3 33 9 5 13 22 16 86 16 l81 0 -7 -31
c-3 -17 -6 -35 -6 -40 0 -5 -6 -9 -13 -9 -8 0 -24 -11 -36 -24 -20 -22 -25
-22 -59 -11 -20 7 -38 19 -40 26 -18 55 -52 38 -52 -26 0 -44 10 -55 49 -55
10 0 26 -9 36 -20 18 -20 17 -20 -13 -20 -18 0 -32 5 -32 10 0 6 -7 10 -16 10
-12 0 -14 -10 -12 -47 3 -42 6 -49 30 -57 22 -8 31 -6 40 7 10 13 33 17 108
19 l95 3 3 53 c2 42 0 54 -14 59 -10 4 -22 0 -29 -10 -12 -16 -35 -23 -35 -11
0 18 23 44 39 44 10 0 24 7 32 16 11 13 10 21 -6 50 -12 22 -19 57 -19 92 -1
50 -4 57 -22 60 -12 2 -24 -4 -27 -12z"/>
<path d="M4649 2314 c-8 -10 -13 -46 -13 -102 -1 -72 -4 -89 -19 -100 -14 -11
-17 -25 -15 -60 3 -45 5 -47 37 -52 l33 -5 -21 -20 c-19 -16 -25 -17 -43 -6
-19 12 -23 11 -35 -5 -7 -10 -13 -26 -13 -35 0 -10 -5 -21 -10 -24 -18 -11 9
-35 38 -35 14 0 33 6 41 14 9 7 35 16 58 19 35 4 43 2 48 -13 3 -10 12 -21 20
-24 8 -3 15 -14 15 -24 0 -11 7 -25 15 -32 23 -19 38 1 38 48 0 32 -7 47 -32
71 -17 17 -31 33 -31 36 0 13 38 3 44 -11 3 -9 15 -14 28 -12 18 2 24 11 26
38 2 19 8 40 13 47 7 7 6 13 0 17 -5 4 -12 2 -16 -4 -9 -14 -38 -12 -71 5 -16
8 -44 15 -61 15 -20 0 -41 8 -53 20 -28 28 -26 42 5 28 17 -7 39 -8 73 -1 30
6 56 6 70 0 11 -5 32 -7 46 -3 20 5 26 13 26 35 0 16 7 34 15 41 19 16 20 69
1 76 -8 3 -16 14 -19 25 -4 15 -14 19 -50 19 -42 0 -48 -3 -76 -42 -17 -23
-31 -47 -31 -54 0 -6 -9 -14 -20 -17 -34 -9 -25 38 15 78 20 21 32 42 28 50
-7 21 -86 20 -104 -1z m167 -143 c-14 -14 -26 -20 -26 -13 0 7 7 15 15 18 8 4
15 16 15 28 0 31 14 43 18 16 2 -14 -6 -32 -22 -49z"/>
<path d="M447 2053 c-14 -14 -6 -42 13 -48 11 -4 28 -19 38 -33 9 -15 20 -30
25 -33 11 -8 -14 -49 -29 -49 -6 0 -9 10 -7 23 2 12 -2 30 -9 39 -11 14 -20
16 -50 9 -41 -10 -48 -6 -48 20 0 23 -19 34 -33 20 -6 -6 -19 -11 -29 -11 -15
0 -18 -9 -18 -64 0 -43 5 -67 14 -76 8 -6 16 -26 18 -43 3 -36 35 -50 50 -23
6 10 23 16 47 16 22 0 44 6 51 15 7 8 27 15 45 15 59 0 65 6 65 70 0 39 -5 62
-15 70 -8 7 -15 21 -15 32 0 41 -19 58 -64 58 -23 0 -46 -3 -49 -7z m-67 -140
c19 -16 28 -53 13 -53 -14 0 -43 34 -43 52 0 22 4 23 30 1z"/>
<path d="M523 1813 c-22 -8 -14 -33 14 -46 68 -30 83 -80 26 -85 -17 -2 -37
-10 -43 -18 -7 -8 -30 -14 -55 -14 -52 0 -80 -24 -52 -45 9 -7 17 -19 17 -27
0 -8 6 -23 14 -34 14 -18 16 -18 48 14 19 17 41 32 50 32 8 0 26 9 40 19 13
11 42 21 64 23 36 3 39 6 42 36 2 22 -2 34 -12 38 -9 3 -16 16 -16 29 0 12 -9
32 -20 45 -11 13 -20 27 -20 32 0 8 -76 10 -97 1z"/>
<path d="M4520 1790 c-14 -17 -24 -39 -22 -49 1 -10 -4 -24 -13 -31 -29 -24
-11 -78 43 -127 21 -19 36 -23 97 -23 72 0 73 0 101 38 25 31 29 46 29 99 0
55 -3 65 -29 92 -28 29 -34 31 -105 31 -73 0 -77 -1 -101 -30z m126 -45 c9 -8
24 -15 35 -15 28 0 27 -69 -1 -93 -25 -21 -73 -22 -90 -2 -7 8 -19 15 -26 15
-10 0 -14 15 -14 55 l0 55 41 0 c23 0 47 -7 55 -15z"/>
<path d="M641 1611 c-14 -4 -26 -11 -28 -17 -4 -12 59 -64 77 -64 14 0 28 -39
22 -62 -2 -10 -11 -18 -19 -18 -10 0 -13 6 -9 16 9 25 -12 44 -49 44 -36 0
-52 -14 -65 -57 -8 -26 -8 -25 -9 13 -1 22 -7 49 -15 60 -14 18 -15 18 -45
-10 -28 -27 -29 -31 -16 -46 8 -9 15 -26 15 -38 0 -12 9 -30 20 -39 11 -10 20
-27 20 -38 0 -18 47 -65 64 -65 3 0 12 14 21 30 9 17 22 30 30 30 9 0 23 9 32
20 10 11 27 20 40 20 12 0 26 8 32 18 8 14 13 15 31 4 20 -12 21 -12 14 25 -8
45 -21 73 -34 73 -6 0 -10 10 -10 23 0 28 -53 87 -77 86 -10 -1 -29 -4 -42 -8z
m-18 -198 c-7 -2 -21 -2 -30 0 -10 3 -4 5 12 5 17 0 24 -2 18 -5z"/>
<path d="M4418 1583 c-21 -10 -28 -22 -28 -44 0 -16 -5 -29 -12 -29 -13 -1
-48 -66 -48 -88 0 -7 -7 -12 -15 -12 -32 0 -28 -32 7 -64 l35 -33 -22 -21
c-29 -28 -39 -28 -65 0 l-20 22 -31 -32 c-26 -27 -29 -35 -19 -47 7 -8 20 -15
29 -15 9 0 27 -7 39 -16 12 -8 48 -18 79 -21 31 -4 68 -12 82 -19 34 -18 51
-2 51 50 0 33 -7 47 -31 71 -17 17 -36 42 -41 58 -6 15 -14 27 -19 27 -5 0 -9
5 -9 10 0 6 6 10 14 10 15 0 26 30 26 73 0 22 5 27 24 27 13 0 29 -7 36 -15 7
-8 18 -15 26 -15 7 0 29 -13 47 -30 34 -30 57 -38 57 -21 0 5 9 11 20 14 28 7
26 45 -2 58 -43 19 -83 42 -96 56 -7 7 -22 13 -32 13 -11 0 -20 10 -24 25 -7
28 -18 30 -58 8z m-23 -333 c3 -5 1 -10 -4 -10 -6 0 -11 5 -11 10 0 6 2 10 4
10 3 0 8 -4 11 -10z"/>
<path d="M796 1305 c-22 -19 -45 -35 -52 -35 -6 0 -17 -7 -24 -15 -19 -23 -30
-18 -30 15 0 44 -26 50 -56 14 -27 -34 -30 -52 -9 -60 8 -4 15 -12 15 -20 0
-8 5 -14 10 -14 6 0 14 -8 18 -17 20 -47 56 -93 72 -93 37 0 50 12 50 46 0 31
-4 35 -31 41 l-31 6 28 12 c16 7 42 25 58 40 16 14 44 29 63 32 43 7 46 14 27
52 -21 43 -57 42 -108 -4z"/>
<path d="M1112 902 c-45 -38 -45 -83 3 -135 39 -43 44 -62 17 -69 -26 -7 -62
33 -62 69 0 16 -7 38 -15 49 -15 19 -15 19 -30 0 -8 -11 -15 -30 -15 -43 0
-13 -4 -23 -10 -23 -20 0 -9 -20 33 -64 35 -35 52 -45 83 -48 34 -3 39 -6 37
-25 -2 -17 8 -29 37 -48 22 -14 43 -25 47 -25 5 0 14 -9 21 -20 9 -15 23 -20
56 -20 41 0 45 -2 48 -27 2 -21 11 -30 36 -39 17 -5 37 -15 44 -22 7 -7 20
-12 29 -12 9 0 22 -7 29 -15 7 -8 25 -15 40 -15 15 0 35 -9 45 -20 10 -11 24
-20 30 -20 7 0 18 -7 25 -15 18 -22 36 -3 44 47 l7 42 20 -21 c18 -17 19 -23
8 -40 -25 -40 49 -101 91 -75 14 9 19 6 29 -14 9 -20 18 -24 55 -24 26 0 48
-6 56 -15 8 -9 29 -15 56 -15 35 0 44 4 50 22 l7 23 8 -23 c5 -14 20 -25 39
-28 16 -4 35 -13 41 -20 16 -20 98 -19 105 1 8 20 40 19 48 -1 4 -11 17 -14
48 -12 l43 3 5 50 c5 49 5 49 18 21 15 -34 34 -30 48 13 6 18 22 42 36 54 14
12 31 31 37 42 8 16 10 0 11 -71 0 -70 -4 -95 -15 -104 -12 -10 -13 -16 -4
-26 8 -10 38 -14 103 -14 83 0 93 2 114 25 29 30 33 73 9 89 -15 9 -21 8 -31
-7 -23 -30 -31 -19 -28 37 3 43 8 55 23 59 10 3 19 12 19 21 0 23 13 20 30 -6
9 -13 17 -57 20 -103 l5 -80 40 0 c36 0 40 2 39 25 0 14 -4 35 -8 47 -6 19 -3
23 28 29 20 3 43 4 51 0 20 -7 19 -35 -1 -58 -33 -35 28 -66 70 -35 16 12 17
20 7 91 -14 97 -14 139 -1 131 6 -3 10 -14 10 -24 0 -10 7 -24 15 -31 10 -8
15 -31 15 -71 0 -49 3 -60 21 -70 26 -14 88 -3 96 17 3 9 20 14 47 14 51 0 66
13 66 60 0 54 -41 84 -55 40 -6 -20 -7 -20 -24 2 -10 13 -21 36 -25 51 -8 34
-34 46 -51 24 -16 -22 -22 -21 -28 3 -5 18 0 20 48 20 30 0 57 -5 60 -10 11
-18 25 -10 25 14 0 44 18 37 25 -10 3 -25 13 -48 21 -51 9 -3 14 -20 14 -47 0
-23 5 -47 12 -54 15 -15 51 -15 66 0 17 17 15 67 -3 74 -8 4 -15 17 -15 30 0
24 0 24 20 4 11 -11 29 -20 39 -20 10 0 21 -7 25 -15 8 -21 79 -20 97 2 11 12
11 17 2 20 -7 3 -28 15 -48 29 -20 13 -43 24 -52 24 -15 0 -15 2 0 18 10 11
17 36 17 58 1 31 3 36 11 22 5 -10 14 -18 20 -18 5 0 22 -12 37 -28 43 -42 89
-72 112 -72 19 0 20 6 20 140 0 152 -3 159 -55 146 -19 -5 -25 -13 -25 -35 0
-16 7 -34 15 -41 10 -8 15 -31 15 -68 l0 -55 -37 39 c-21 22 -44 52 -50 67
-16 35 -44 35 -86 -3 -26 -23 -44 -30 -75 -30 -37 0 -142 -44 -150 -62 -2 -5
-19 -8 -38 -8 -29 0 -34 3 -34 24 0 32 -19 44 -35 23 -7 -10 -17 -17 -23 -17
-7 0 -14 -11 -18 -25 -8 -34 -32 -45 -92 -44 -27 1 -55 -2 -61 -5 -14 -9 -15
-36 -1 -36 15 0 12 -60 -4 -76 -31 -31 -65 -13 -57 30 1 6 0 20 -3 32 l-6 22
-250 1 c-159 1 -258 -2 -270 -9 -14 -7 -20 -7 -20 0 0 5 -9 10 -19 10 -10 0
-21 7 -25 15 -7 20 -102 21 -113 1 -4 -8 -17 -16 -27 -18 -14 -2 -21 5 -27 26
-11 39 -24 46 -85 46 -37 0 -54 4 -58 15 -3 10 -19 15 -44 15 -21 0 -47 6 -58
14 -22 17 -44 4 -44 -25 0 -15 -7 -19 -32 -19 -29 0 -30 1 -15 18 36 39 15 82
-39 82 -18 0 -36 5 -39 11 -4 5 -18 15 -32 20 -23 9 -24 11 -11 27 28 32 11
42 -68 42 -72 0 -76 1 -107 35 -17 19 -41 35 -52 35 -11 0 -26 9 -33 21 -11
17 -21 20 -52 17 -36 -3 -40 -1 -46 25 -6 29 -44 77 -61 77 -6 0 -16 7 -23 15
-18 22 -41 18 -78 -13z m108 -124 c0 -34 14 -41 84 -42 82 -2 71 -45 -12 -46
-12 0 -25 -7 -28 -15 -4 -9 -19 -15 -35 -15 -25 0 -28 3 -20 18 11 21 -5 112
-20 112 -12 0 -29 42 -22 53 10 17 53 -36 53 -65z m240 -124 c0 -12 -29 -76
-48 -104 -2 -3 -8 3 -13 13 -8 13 -22 18 -52 17 -23 -1 -58 3 -77 8 l-35 8 43
6 c24 4 51 13 61 22 10 9 31 16 48 16 17 0 36 7 43 15 16 19 30 19 30 -1z
m134 -86 c5 -27 9 -30 36 -26 28 4 30 2 30 -28 0 -17 -7 -37 -15 -44 -8 -7
-15 -27 -15 -45 0 -24 -6 -34 -25 -43 -20 -9 -25 -9 -25 2 0 8 7 16 15 20 25
9 19 46 -7 47 -62 1 -108 6 -114 11 -3 4 -3 22 2 40 l7 33 9 -32 c10 -39 19
-40 58 -11 20 15 30 30 30 49 0 30 -23 54 -45 46 -8 -4 -17 -2 -19 2 -9 14 2
17 38 13 28 -3 35 -9 40 -34z m-194 -32 c0 -3 -4 -8 -10 -11 -5 -3 -10 -1 -10
4 0 6 5 11 10 11 6 0 10 -2 10 -4z m2000 -46 c0 -15 -48 -43 -65 -36 -8 3 -15
15 -15 26 0 17 6 20 40 20 22 0 40 -4 40 -10z m-1500 -34 c0 -7 -7 -19 -15
-26 -8 -7 -15 -23 -15 -35 0 -48 -13 -83 -31 -88 -10 -3 -19 -1 -19 3 0 5 -6
15 -14 23 -8 7 -16 32 -17 55 -3 33 1 44 21 61 29 24 90 29 90 7z m144 -57 c5
-26 10 -31 29 -27 19 4 26 -1 34 -23 12 -31 8 -39 -19 -39 -10 0 -29 -7 -42
-16 -16 -10 -41 -14 -73 -12 -41 3 -48 6 -51 26 -3 18 1 22 21 22 14 0 27 -7
31 -15 17 -45 62 12 49 63 -8 36 -24 44 -45 25 -17 -15 -18 -15 -18 5 0 19 6
22 39 22 35 0 39 -3 45 -31z m176 -19 c11 -11 20 -24 20 -29 0 -16 -37 0 -61
25 l-22 24 21 0 c12 0 31 -9 42 -20z m111 -68 c-6 -2 -11 -18 -12 -35 -1 -18
-5 -43 -9 -57 -7 -21 -8 -18 -9 20 -1 50 -7 61 -36 78 -20 11 -20 11 1 12 12
0 32 9 45 19 l24 19 3 -26 c2 -15 -1 -28 -7 -30z m328 52 c30 -6 31 -8 15 -25
-9 -11 -28 -19 -41 -19 -18 0 -23 5 -23 25 0 27 2 28 49 19z m-175 -30 c9 -36
0 -41 -23 -13 -16 19 -22 22 -32 12 -19 -19 -29 -16 -29 7 0 17 7 20 39 20 34
0 40 -4 45 -26z m684 -24 c17 -8 32 -18 32 -22 0 -15 -53 -8 -66 10 -15 19
-18 36 -6 30 4 -3 22 -11 40 -18z m-985 -32 c10 -10 22 -18 27 -18 6 0 10 -9
10 -20 0 -13 -7 -20 -18 -20 -23 0 -87 65 -78 79 8 13 36 3 59 -21z m461 -39
c30 -26 24 -59 -10 -59 -21 0 -24 5 -24 40 0 22 2 40 5 40 3 0 16 -9 29 -21z"/>
<path d="M3954 915 c-4 -8 -14 -15 -24 -15 -9 0 -41 -23 -71 -51 -50 -47 -53
-51 -35 -62 40 -24 126 -120 126 -141 0 -20 -24 -21 -40 -1 -7 8 -18 15 -25
15 -8 0 -15 4 -17 9 -1 5 -27 27 -55 50 -39 30 -53 48 -53 67 0 35 -23 40 -54
11 -30 -28 -33 -42 -11 -51 11 -4 15 -22 15 -69 0 -37 5 -68 12 -75 7 -7 15
-39 18 -70 l5 -57 38 -3 c43 -4 63 22 34 43 -23 17 -21 48 4 71 21 19 21 19
48 -13 15 -18 33 -33 40 -33 7 0 27 16 45 35 19 19 40 35 48 35 20 0 61 49 54
66 -3 8 -13 14 -22 14 -9 0 -27 11 -40 25 l-23 25 23 0 c13 0 29 -7 36 -15 17
-21 103 -20 125 1 9 9 15 26 13 38 -3 18 -11 22 -60 26 -60 5 -81 15 -54 26
26 10 19 50 -16 83 -35 33 -75 40 -84 16z m14 -116 c-19 -12 -33 -5 -36 19 -2
15 3 21 20 24 26 3 39 -29 16 -43z m-188 -149 c0 -11 -4 -20 -10 -20 -5 0 -10
9 -10 20 0 11 5 20 10 20 6 0 10 -9 10 -20z"/>
</g>
</svg>
